<svg width="100" height="90" viewBox="0 0 100 90" fill="none" xmlns="http://www.w3.org/2000/svg">
<rect x="10" y="50" width="10" height="10" fill="#FB057B"/>
<rect x="20" y="50" width="10" height="10" fill="#F54F9F"/>
<rect x="30" y="60" width="10" height="10" fill="#F54F9F"/>
<rect x="40" y="70" width="10" height="10" fill="#F54F9F"/>
<rect x="50" y="70" width="10" height="10" fill="#F54F9F"/>
<rect y="40" width="10" height="10" fill="#FB057B"/>
<rect y="30" width="10" height="10" fill="#FB057B"/>
<rect x="90" y="40" width="10" height="10" fill="#FB057B"/>
<rect y="20" width="10" height="10" fill="#FB057B"/>
<rect x="10" y="10" width="10" height="10" fill="#FB057B"/>
<rect x="20" width="10" height="10" fill="#FB057B"/>
<rect x="40" y="10" width="10" height="10" fill="#FB057B"/>
<rect x="30" width="10" height="10" fill="#FB057B"/>
<rect x="50" y="10" width="10" height="10" fill="#FB057B"/>
<rect x="90" y="30" width="10" height="10" fill="#FB057B"/>
<rect x="90" y="20" width="10" height="10" fill="#FB057B"/>
<rect x="80" y="10" width="10" height="10" fill="#FB057B"/>
<rect x="70" width="10" height="10" fill="#FB057B"/>
<rect x="60" width="10" height="10" fill="#FB057B"/>
<rect width="10" height="10" transform="matrix(-1 0 0 1 90 50)" fill="#FB057B"/>
<rect x="20" y="60" width="10" height="10" fill="#FB057B"/>
<rect width="10" height="10" transform="matrix(-1 0 0 1 80 60)" fill="#FB057B"/>
<rect x="30" y="70" width="10" height="10" fill="#FB057B"/>
<rect width="10" height="10" transform="matrix(-1 0 0 1 70 70)" fill="#FB057B"/>
<rect x="40" y="80" width="10" height="10" fill="#FB057B"/>
<rect width="10" height="10" transform="matrix(-1 0 0 1 60 80)" fill="#FB057B"/>
<rect x="10" y="20" width="10" height="10" fill="#F54F9F"/>
<rect x="10" y="30" width="10" height="10" fill="#F54F9F"/>
<rect x="10" y="40" width="10" height="10" fill="#F54F9F"/>
<rect x="20" y="20" width="10" height="10" fill="#F59AC6"/>
<rect x="20" y="30" width="10" height="10" fill="#F59AC6"/>
<rect x="30" y="30" width="10" height="10" fill="#F59AC6"/>
<rect x="40" y="30" width="10" height="10" fill="#F59AC6"/>
<rect x="50" y="30" width="10" height="10" fill="#F59AC6"/>
<rect x="60.1" y="30.1" width="9.8" height="9.8" fill="#FFD1E7" stroke="white" stroke-width="0.2"/>
<rect x="70" y="30" width="10" height="10" fill="#F59AC6"/>
<rect x="20" y="40" width="10" height="10" fill="#F59AC6"/>
<rect x="30" y="40" width="10" height="10" fill="#F59AC6"/>
<rect x="30" y="50" width="10" height="10" fill="#F59AC6"/>
<rect x="40" y="50" width="10" height="10" fill="#F59AC6"/>
<rect x="40" y="60" width="10" height="10" fill="#F59AC6"/>
<rect x="50" y="60" width="10" height="10" fill="#F59AC6"/>
<rect x="60" y="60" width="10" height="10" fill="#F59AC6"/>
<rect x="50" y="50" width="10" height="10" fill="#F59AC6"/>
<rect x="60" y="50" width="10" height="10" fill="#F59AC6"/>
<rect x="70" y="50" width="10" height="10" fill="#F59AC6"/>
<rect x="40" y="40" width="10" height="10" fill="#F59AC6"/>
<rect x="50" y="40" width="10" height="10" fill="#F59AC6"/>
<rect x="60" y="40" width="10" height="10" fill="#F59AC6"/>
<rect x="70" y="40" width="10" height="10" fill="#F59AC6"/>
<rect x="20" y="10" width="10" height="10" fill="#F59AC6"/>
<rect x="30" y="10" width="10" height="10" fill="#F59AC6"/>
<rect x="30" y="20" width="10" height="10" fill="#F59AC6"/>
<rect x="40" y="20" width="10" height="10" fill="#F59AC6"/>
<rect x="50" y="20" width="10" height="10" fill="#F59AC6"/>
<rect x="60" y="20" width="10" height="10" fill="#F59AC6"/>
<rect x="60" y="10" width="10" height="10" fill="#F59AC6"/>
<rect x="70" y="10" width="10" height="10" fill="#F59AC6"/>
<rect x="70" y="20" width="10" height="10" fill="#F59AC6"/>
<rect x="80" y="20" width="10" height="10" fill="#F59AC6"/>
<rect x="80" y="30" width="10" height="10" fill="#F59AC6"/>
<rect x="80" y="40" width="10" height="10" fill="#F59AC6"/>
<rect x="70.1" y="40.1" width="7.05" height="6.55" fill="#FFD1E7" stroke="white" stroke-width="0.2"/>
</svg>
